<svg width="167" height="27" viewBox="0 0 167 27" fill="none" xmlns="http://www.w3.org/2000/svg">
<path d="M12.0853 3.21285C12.3851 2.29257 13.687 2.29258 13.9869 3.21285L15.738 8.58725C15.8721 8.99888 16.2559 9.27746 16.6888 9.27746H22.3495C23.3189 9.27746 23.7213 10.5185 22.9363 11.0872L18.3614 14.4019C18.0099 14.6565 17.8629 15.1088 17.9973 15.5215L19.7459 20.8881C20.0459 21.8089 18.9926 22.5759 18.2084 22.0077L13.6228 18.6853C13.2728 18.4317 12.7994 18.4317 12.4494 18.6853L7.86382 22.0077C7.07956 22.5759 6.02627 21.8089 6.3263 20.8881L8.07487 15.5215C8.20932 15.1088 8.06224 14.6565 7.71078 14.4019L3.13591 11.0872C2.3509 10.5185 2.75323 9.27746 3.72263 9.27746H9.38338C9.81631 9.27746 10.2001 8.99888 10.3342 8.58725L12.0853 3.21285Z" fill="#120D0E"/>
<path d="M47.1822 3.21285C47.4821 2.29257 48.784 2.29258 49.0838 3.21285L50.8349 8.58725C50.969 8.99888 51.3528 9.27746 51.7857 9.27746H57.4465C58.4159 9.27746 58.8182 10.5185 58.0332 11.0872L53.4583 14.4019C53.1069 14.6565 52.9598 15.1088 53.0942 15.5215L54.8428 20.8881C55.1428 21.8089 54.0895 22.5759 53.3053 22.0077L48.7197 18.6853C48.3697 18.4317 47.8963 18.4317 47.5463 18.6853L42.9607 22.0077C42.1765 22.5759 41.1232 21.8089 41.4232 20.8881L43.1718 15.5215C43.3062 15.1088 43.1592 14.6565 42.8077 14.4019L38.2328 11.0872C37.4478 10.5185 37.8502 9.27746 38.8196 9.27746H44.4803C44.9132 9.27746 45.297 8.99888 45.4311 8.58725L47.1822 3.21285Z" fill="#120D0E"/>
<path d="M82.2794 3.21285C82.5792 2.29257 83.8811 2.29258 84.181 3.21285L85.9321 8.58725C86.0662 8.99888 86.45 9.27746 86.8829 9.27746H92.5436C93.513 9.27746 93.9154 10.5185 93.1304 11.0872L88.5555 14.4019C88.204 14.6565 88.0569 15.1088 88.1914 15.5215L89.94 20.8881C90.24 21.8089 89.1867 22.5759 88.4024 22.0077L83.8169 18.6853C83.4669 18.4317 82.9935 18.4317 82.6435 18.6853L78.0579 22.0077C77.2737 22.5759 76.2204 21.8089 76.5204 20.8881L78.269 15.5215C78.4034 15.1088 78.2563 14.6565 77.9049 14.4019L73.33 11.0872C72.545 10.5185 72.9473 9.27746 73.9167 9.27746H79.5775C80.0104 9.27746 80.3942 8.99888 80.5283 8.58725L82.2794 3.21285Z" fill="#120D0E"/>
<path d="M117.377 3.21285C117.676 2.29257 118.978 2.29258 119.278 3.21285L121.029 8.58725C121.163 8.99888 121.547 9.27746 121.98 9.27746H127.641C128.61 9.27746 129.013 10.5185 128.228 11.0872L123.653 14.4019C123.301 14.6565 123.154 15.1088 123.289 15.5215L125.037 20.8881C125.337 21.8089 124.284 22.5759 123.5 22.0077L118.914 18.6853C118.564 18.4317 118.091 18.4317 117.741 18.6853L113.155 22.0077C112.371 22.5759 111.318 21.8089 111.618 20.8881L113.366 15.5215C113.501 15.1088 113.354 14.6565 113.002 14.4019L108.427 11.0872C107.642 10.5185 108.044 9.27746 109.014 9.27746H114.675C115.108 9.27746 115.491 8.99888 115.625 8.58725L117.377 3.21285Z" fill="#120D0E"/>
<path d="M152.474 3.21285C152.774 2.29257 154.075 2.29258 154.375 3.21285L156.126 8.58725C156.261 8.99888 156.644 9.27746 157.077 9.27746H162.738C163.707 9.27746 164.11 10.5185 163.325 11.0872L158.75 14.4019C158.398 14.6565 158.251 15.1088 158.386 15.5215L160.134 20.8881C160.434 21.8089 159.381 22.5759 158.597 22.0077L154.011 18.6853C153.661 18.4317 153.188 18.4317 152.838 18.6853L148.252 22.0077C147.468 22.5759 146.415 21.8089 146.715 20.8881L148.463 15.5215C148.598 15.1088 148.451 14.6565 148.099 14.4019L143.524 11.0872C142.739 10.5185 143.142 9.27746 144.111 9.27746H149.772C150.205 9.27746 150.588 8.99888 150.723 8.58725L152.474 3.21285Z" fill="#120D0E"/>
</svg>
