<svg width="72" height="100" fill="none" xmlns="http://www.w3.org/2000/svg"><path d="M64.694 92.191l-29 7.809-29.002-7.809L0 19.69h71.387l-6.693 72.502z" fill="#2062AF"/><path d="M35.693 25.562v68.21l.066.018 23.469-6.32 5.417-61.908H35.693z" fill="#3C9CD7"/><path d="M19.234 9.037V4.722h6.296V0H14.512v13.346H25.53V9.037h-6.296zm17.622-4.315h4.402V0h-11.02v4.722c1.475 1.474 2.244 2.18 4.376 4.312-1.246 0-4.375.004-4.375.004v4.308h11.019V9.037l-4.402-4.315zm15.618 0h4.401V0h-11.02v4.722c1.475 1.474 2.244 2.18 4.377 4.312-1.246 0-4.376.004-4.376.004v4.308h11.02V9.037l-4.402-4.315z" fill="#000"/><path d="M35.667 43.69l-20.756 8.645.688 8.559 20.068-8.58 21.348-9.128.885-8.755-22.233 9.26z" fill="#fff"/><path d="M14.91 52.335l.689 8.559 20.068-8.58V43.69L14.91 52.335z" fill="url(#paint0_linear)"/><path d="M57.9 34.43l-22.233 9.26v8.623l21.348-9.127.885-8.755z" fill="url(#paint1_linear)"/><path d="M14.942 52.335l.689 8.559 30.792.098-.688 11.411-10.133 2.853-9.74-2.46-.59-7.082h-9.05l1.18 13.674 18.299 5.41 18.2-5.312 2.36-27.151H14.942z" fill="url(#paint2_linear)"/><path opacity=".05" d="M35.667 52.335H14.911l.688 8.559 20.068.064v-8.623zm0 22.894l-.098.027-9.739-2.459-.59-7.083h-9.05l1.18 13.674 18.297 5.41v-9.57z" fill="#000"/><path d="M13.041 34.43h44.86l-.886 8.756H14.123l-1.082-8.755z" fill="url(#paint3_linear)"/><path opacity=".05" d="M35.667 34.43H13.041l1.082 8.756h21.544v-8.755z" fill="#000"/><defs><linearGradient id="paint0_linear" x1="25.289" y1="60.894" x2="25.289" y2="43.69" gradientUnits="userSpaceOnUse"><stop offset=".387" stop-color="#D1D3D4" stop-opacity="0"/><stop offset="1" stop-color="#D1D3D4"/></linearGradient><linearGradient id="paint1_linear" x1="46.784" y1="52.313" x2="46.784" y2="34.431" gradientUnits="userSpaceOnUse"><stop offset=".387" stop-color="#D1D3D4" stop-opacity="0"/><stop offset="1" stop-color="#D1D3D4"/></linearGradient><linearGradient id="paint2_linear" x1="14.942" y1="68.567" x2="56.261" y2="68.567" gradientUnits="userSpaceOnUse"><stop stop-color="#E8E7E5"/><stop offset="1" stop-color="#fff"/></linearGradient><linearGradient id="paint3_linear" x1="13.041" y1="38.808" x2="57.9" y2="38.808" gradientUnits="userSpaceOnUse"><stop stop-color="#E8E7E5"/><stop offset="1" stop-color="#fff"/></linearGradient></defs></svg>