<svg width="185" height="185" fill="none" xmlns="http://www.w3.org/2000/svg"><g clip-path="url(#clip0)"><path d="M5.753 124.674C18.823 159.897 52.728 185 92.5 185s73.677-25.103 86.747-60.326L92.5 116.631l-86.747 8.043z" fill="#FFDA44"/><path d="M92.5 0C52.728 0 18.823 25.102 5.753 60.326L92.5 68.37l86.747-8.043C166.177 25.102 132.272 0 92.5 0z" fill="#000"/><path d="M5.753 60.326C2.035 70.346 0 81.186 0 92.5c0 11.315 2.035 22.153 5.753 32.174h173.494C182.965 114.653 185 103.815 185 92.5c0-11.315-2.035-22.153-5.753-32.174H5.753z" fill="#D80027"/></g><defs><clipPath id="clip0"><path fill="#fff" d="M0 0h185v185H0z"/></clipPath></defs></svg>