<svg width="120" height="51" fill="none" xmlns="http://www.w3.org/2000/svg"><g clip-path="url(#clip0)"><path d="M71.711 17.325c-2.623 0-4.577 1.28-4.577 4.358 0 2.32 1.287 3.931 4.436 3.931 2.668 0 4.48-1.562 4.48-4.027 0-2.793-1.621-4.262-4.339-4.262zm-5.245 21.741c-.621.757-1.24 1.561-1.24 2.51 0 1.893 2.43 2.463 5.77 2.463 2.766 0 6.534-.193 6.534-2.747 0-1.518-1.813-1.611-4.103-1.754l-6.961-.471zM80.58 17.468c.857 1.09 1.765 2.605 1.765 4.784 0 5.257-4.15 8.335-10.157 8.335-1.527 0-2.91-.189-3.767-.425l-1.575 2.509 4.673.284c8.25.522 13.113.76 13.113 7.056 0 5.448-4.815 8.525-13.113 8.525-8.631 0-11.922-2.179-11.922-5.92 0-2.132.954-3.266 2.623-4.832-1.574-.66-2.098-1.844-2.098-3.123 0-1.043.524-1.99 1.384-2.89.858-.9 1.811-1.8 2.956-2.842-2.336-1.137-4.102-3.6-4.102-7.105 0-5.446 3.625-9.186 10.92-9.186 2.051 0 3.291.187 4.388.474h9.3v4.024l-4.388.332zM93.36 8.86c-2.719 0-4.292-1.564-4.292-4.265C89.067 1.9 90.64.43 93.359.43c2.766 0 4.34 1.47 4.34 4.166 0 2.701-1.574 4.265-4.34 4.265zm-6.153 28.463v-3.74l2.433-.33c.668-.096.763-.238.763-.95V18.38c0-.52-.143-.853-.621-.994l-2.575-.9.524-3.836h9.873v19.654c0 .76.046.854.763.95l2.432.33v3.74H87.206zm32.45-1.837c-2.051.994-5.055 1.894-7.774 1.894-5.675 0-7.82-2.27-7.82-7.625V17.348c0-.284 0-.473-.383-.473h-3.337v-4.217c4.197-.475 5.865-2.558 6.39-7.72h4.531v6.726c0 .33 0 .474.382.474h6.723v4.736h-7.105v11.319c0 2.794.668 3.882 3.242 3.882 1.337 0 2.718-.33 3.862-.757l1.289 4.169" fill="#2F2707"/><path d="M48.998 23.059L27.194 1.405a3.217 3.217 0 00-2.275-.936 3.235 3.235 0 00-2.274.936l-4.527 4.497 5.743 5.704a3.842 3.842 0 013.93.909 3.773 3.773 0 01.907 3.926l5.535 5.498a3.84 3.84 0 013.954.902 3.798 3.798 0 011.12 2.688 3.777 3.777 0 01-1.12 2.687 3.848 3.848 0 01-4.83.476 3.803 3.803 0 01-1.538-2.053 3.776 3.776 0 01.122-2.557l-5.162-5.127v13.492a3.801 3.801 0 012.133 3.407 3.78 3.78 0 01-1.121 2.687 3.844 3.844 0 01-5.412 0 3.794 3.794 0 01-1.047-3.435 3.79 3.79 0 01.8-1.671c.4-.484.916-.86 1.5-1.098V18.719a3.783 3.783 0 01-1.253-.83 3.78 3.78 0 01-.825-4.154L15.893 8.11.943 22.958A3.193 3.193 0 000 25.218a3.176 3.176 0 00.943 2.259L22.747 49.13a3.228 3.228 0 002.274.936c.853 0 1.671-.337 2.274-.936l21.703-21.553a3.186 3.186 0 000-4.52z" fill="#DE4C36"/></g><defs><clipPath id="clip0"><path fill="#fff" d="M0 0h120v50.294H0z"/></clipPath></defs></svg>