<svg width="100" height="99" fill="none" xmlns="http://www.w3.org/2000/svg"><g clip-path="url(#clip0)"><path d="M50 0C22.375 0 0 22.373 0 49.996c0 23.497 16.123 42.997 37.877 48.495-.252-.626-.375-1.502-.375-2.374v-8.502h-6.25c-3.375 0-6.503-1.498-7.877-4.25-1.626-3-1.877-7.626-6-10.502-1.252-1-.252-2 1.123-1.877 2.625.75 4.749 2.502 6.749 5.123 2 2.626 2.876 3.251 6.625 3.251 1.75 0 4.498-.123 7-.502 1.375-3.502 3.75-6.625 6.626-8.123-16.75-2-24.75-10.25-24.75-21.5 0-4.877 2.124-9.502 5.627-13.501-1.124-3.877-2.626-11.876.502-15 7.502 0 12 4.877 13.123 6.124 3.749-1.251 7.877-2 12.123-2 4.375 0 8.375.749 12.124 2 1.123-1.251 5.625-6.123 13.123-6.123 3 3 1.626 11.122.375 14.999 3.502 3.876 5.502 8.624 5.502 13.5 0 11.251-7.877 19.502-24.498 21.25 4.625 2.375 7.877 9.123 7.877 14.123v11.386c0 .375-.124.749-.124 1.124C86 90.368 100 71.87 100 49.997 100 22.372 77.626 0 50 0z" fill="#000"/></g><defs><clipPath id="clip0"><path fill="#fff" d="M0 0h100v98.495H0z"/></clipPath></defs></svg>