<svg width="100" height="100" fill="none" xmlns="http://www.w3.org/2000/svg"><g clip-path="url(#clip0)"><path d="M21.024 91.968l-6.447-72.316h70.846L78.97 91.957 49.957 100l-28.933-8.032z" fill="#E44D26"/><path d="M50 93.852l23.443-6.5 5.516-61.787H50v68.287z" fill="#F16529"/><path d="M50 52.386H38.264l-.811-9.082H50v-8.87H27.76l.212 2.38 2.18 24.441H50v-8.869zM50 75.42l-.039.01-9.878-2.666-.631-7.074H30.549l1.242 13.926L49.96 84.66l.041-.012v-9.227z" fill="#EBEBEB"/><path d="M21.168 0h4.507v4.453h4.123V0h4.508v13.485h-4.507V8.97h-4.123v4.515h-4.508V0zM40.233 4.472h-3.968V0H48.71v4.472h-3.97v9.013h-4.507V4.472zM50.686 0h4.7l2.89 4.738L61.166 0h4.701v13.485h-4.488V6.801l-3.101 4.795h-.078L55.096 6.8v6.684h-4.41V0zM68.11 0h4.508v9.028h6.338v4.457H68.11V0z" fill="#120D0E"/><path d="M49.97 52.386v8.87H60.89l-1.03 11.502-9.892 2.67v9.227l18.183-5.039.133-1.498 2.085-23.35.216-2.382H49.969zM49.97 34.434v8.87h21.423l.178-1.994.404-4.496.212-2.38H49.97z" fill="#fff"/></g><defs><clipPath id="clip0"><path fill="#fff" d="M0 0h100v100H0z"/></clipPath></defs></svg>