<svg width="78" height="78" fill="none" xmlns="http://www.w3.org/2000/svg"><g opacity=".78"><path d="M0 0h78v78H0V0z" fill="#F7DF1E"/><path d="M20.51 65.182l5.968-3.612c1.152 2.042 2.2 3.77 4.712 3.77 2.409 0 3.927-.943 3.927-4.608V35.81h7.33v25.026c0 7.592-4.45 11.048-10.943 11.048-5.864 0-9.267-3.037-10.995-6.702zm25.919-.785l5.968-3.456c1.571 2.566 3.613 4.451 7.225 4.451 3.038 0 4.975-1.518 4.975-3.613 0-2.513-1.99-3.403-5.341-4.869l-1.832-.786c-5.289-2.25-8.797-5.078-8.797-11.047 0-5.498 4.189-9.687 10.734-9.687 4.66 0 8.01 1.624 10.42 5.865l-5.708 3.665c-1.257-2.251-2.618-3.141-4.712-3.141-2.147 0-3.508 1.361-3.508 3.141 0 2.199 1.36 3.09 4.502 4.451l1.833.785c6.23 2.67 9.738 5.393 9.738 11.519 0 6.597-5.183 10.21-12.147 10.21-6.806 0-11.204-3.247-13.35-7.488" fill="#000"/></g></svg>