<svg width="100" height="75" fill="none" xmlns="http://www.w3.org/2000/svg"><g clip-path="url(#clip0)"><path d="M86.055 43.086c-3.497.02-6.524.86-9.063 2.11-.937-1.856-1.875-3.477-2.031-4.688-.176-1.406-.39-2.266-.176-3.945.215-1.68 1.192-4.063 1.192-4.258-.02-.176-.216-1.035-2.227-1.055-2.012-.02-3.75.39-3.945.918a22.427 22.427 0 00-.84 2.988c-.352 1.836-4.024 8.34-6.114 11.758-.683-1.328-1.27-2.5-1.386-3.438-.176-1.406-.391-2.265-.176-3.945.215-1.68 1.191-4.062 1.191-4.258-.02-.175-.214-1.035-2.226-1.054-2.012-.02-3.75.39-3.945.918-.196.527-.41 1.777-.84 2.988-.41 1.21-5.293 12.07-6.563 14.902a60.248 60.248 0 01-1.621 3.38c-.41.78-.02.058-.058.136l-.547 1.035v.02c-.274.488-.567.957-.704.957-.097 0-.293-1.309.04-3.106.722-3.77 2.48-9.648 2.46-9.863 0-.097.332-1.133-1.133-1.66-1.425-.527-1.933.352-2.05.352-.117 0-.215.312-.215.312s1.582-6.62-3.028-6.62c-2.89 0-6.874 3.144-8.847 6.015-1.25.683-3.906 2.129-6.719 3.672-1.074.586-2.187 1.21-3.242 1.777l-.215-.235C17.441 43.242 7.11 39.023 7.54 31.016c.156-2.91 1.172-10.586 19.844-19.883 15.293-7.617 27.539-5.528 29.668-.88 3.027 6.642-6.543 18.985-22.442 20.763-6.054.683-9.238-1.66-10.039-2.54-.84-.917-.957-.956-1.27-.78-.507.273-.194 1.093 0 1.581.47 1.23 2.423 3.418 5.743 4.512 2.91.957 10.02 1.484 18.613-1.836 9.63-3.73 17.149-14.082 14.942-22.734C60.352.41 45.742-2.481 31.934 2.422c-8.223 2.93-17.13 7.5-23.536 13.496C.781 23.028-.43 29.238.078 31.816c1.778 9.2 14.453 15.196 19.531 19.63-.254.136-.488.273-.703.39-2.539 1.25-12.207 6.309-14.629 11.66-2.734 6.055.43 10.41 2.54 10.996 6.523 1.817 13.202-1.445 16.816-6.816 3.593-5.371 3.164-12.344 1.504-15.528l-.06-.117 1.993-1.172c1.29-.761 2.559-1.465 3.672-2.07-.625 1.7-1.074 3.71-1.309 6.64-.273 3.438 1.133 7.891 2.989 9.649.82.761 1.797.781 2.402.781 2.148 0 3.125-1.777 4.2-3.906 1.328-2.598 2.5-5.606 2.5-5.606s-1.465 8.145 2.538 8.145c1.465 0 2.93-1.895 3.594-2.871v.02s.04-.06.117-.196c.082-.121.16-.245.235-.37v-.04c.586-1.015 1.894-3.34 3.847-7.187 2.52-4.961 4.942-11.172 4.942-11.172s.234 1.523.957 4.023c.43 1.485 1.367 3.106 2.09 4.688-.587.82-.938 1.289-.938 1.289l.02.02c-.47.625-.997 1.289-1.543 1.953-1.992 2.382-4.375 5.097-4.688 5.879-.37.918-.293 1.601.43 2.148.527.39 1.465.469 2.46.39 1.798-.117 3.048-.566 3.673-.84.976-.35 2.09-.878 3.164-1.66 1.953-1.445 3.144-3.495 3.027-6.23-.058-1.504-.547-2.988-1.152-4.394.175-.254.352-.508.527-.782 3.086-4.511 5.469-9.472 5.469-9.472s.234 1.523.957 4.023c.37 1.27 1.113 2.657 1.777 4.024-2.89 2.363-4.707 5.098-5.332 6.895-1.152 3.32-.254 4.824 1.446 5.175.761.157 1.855-.195 2.675-.547a12.126 12.126 0 003.38-1.738c1.952-1.445 3.827-3.457 3.73-6.172-.059-1.25-.391-2.48-.84-3.652 2.46-1.016 5.644-1.602 9.687-1.113 8.692 1.015 10.41 6.445 10.079 8.71-.332 2.266-2.149 3.516-2.755 3.907-.605.37-.8.508-.742.781.078.41.352.39.88.313.722-.118 4.57-1.856 4.726-6.035.234-5.372-4.864-11.231-13.906-11.173zM19.023 65.684c-2.87 3.144-6.914 4.335-8.633 3.32-1.855-1.074-1.133-5.703 2.403-9.043 2.148-2.031 4.941-3.906 6.777-5.059.41-.254 1.035-.624 1.777-1.074.118-.078.196-.117.196-.117.137-.078.293-.176.45-.273 1.308 4.765.058 8.945-2.97 12.246zM40.02 51.406c-.996 2.442-3.105 8.711-4.375 8.36-1.093-.293-1.757-5.04-.215-9.727.782-2.363 2.442-5.176 3.418-6.27 1.583-1.758 3.301-2.343 3.731-1.62.508.937-1.934 7.734-2.559 9.257zm17.325 8.282c-.43.215-.82.37-.997.254-.136-.078.176-.371.176-.371s2.168-2.325 3.027-3.399c.489-.625 1.075-1.347 1.7-2.168v.235c0 2.812-2.695 4.687-3.906 5.449zm13.359-3.047c-.313-.235-.273-.957.781-3.223.41-.898 1.348-2.402 2.969-3.828.195.586.313 1.152.293 1.68-.02 3.515-2.52 4.824-4.043 5.37z" fill="#CF649A"/></g><defs><clipPath id="clip0"><path fill="#fff" d="M0 0h100v75H0z"/></clipPath></defs></svg>