<svg width="56" height="56" fill="none" xmlns="http://www.w3.org/2000/svg"><path d="M28 56c15.464 0 28-12.536 28-28S43.464 0 28 0 0 12.536 0 28s12.536 28 28 28z" fill="#34AADF"/><path d="M11.653 27.757s14-5.745 18.855-7.769c1.862-.809 8.174-3.399 8.174-3.399s2.913-1.132 2.67 1.619c-.08 1.133-.728 5.098-1.375 9.387-.971 6.07-2.023 12.706-2.023 12.706s-.162 1.86-1.538 2.184c-1.376.324-3.642-1.132-4.046-1.456-.324-.243-6.07-3.885-8.173-5.665-.567-.485-1.214-1.456.08-2.59 2.914-2.67 6.393-5.988 8.497-8.092.972-.971 1.943-3.237-2.104-.486-5.745 3.966-11.41 7.688-11.41 7.688s-1.295.81-3.722.081c-2.428-.728-5.26-1.7-5.26-1.7s-1.943-1.213 1.375-2.508z" fill="#fff"/></svg>