<svg width="182" height="182" fill="none" xmlns="http://www.w3.org/2000/svg"><path d="M91 182c50.258 0 91-40.742 91-91S141.258 0 91 0 0 40.742 0 91s40.742 91 91 91z" fill="#F0F0F0"/><path d="M18.811 35.597A90.668 90.668 0 003.135 67.261h47.34L18.811 35.597zM178.865 67.261a90.68 90.68 0 00-15.676-31.663L131.525 67.26h47.34zM3.135 114.74a90.68 90.68 0 0015.676 31.663l31.663-31.663H3.134zM146.403 18.812a90.679 90.679 0 00-31.664-15.677v47.34l31.664-31.663zM35.597 163.188a90.682 90.682 0 0031.664 15.677v-47.34l-31.664 31.663zM67.26 3.135A90.676 90.676 0 0035.598 18.81l31.664 31.664V3.135zM114.739 178.865a90.693 90.693 0 0031.664-15.676l-31.664-31.664v47.34zM131.525 114.74l31.664 31.663a90.68 90.68 0 0015.676-31.663h-47.34z" fill="#0052B4"/><path d="M181.23 79.13h-78.36V.77a91.914 91.914 0 00-23.74 0v78.36H.77a91.908 91.908 0 000 23.739h78.36v78.361a91.87 91.87 0 0023.739 0v-78.36h78.361a91.875 91.875 0 000-23.74z" fill="#D80027"/><path d="M114.739 114.74l40.608 40.607a91.562 91.562 0 005.349-5.842l-34.766-34.766h-11.191v.001zM67.26 114.74l-40.607 40.607a91.455 91.455 0 005.842 5.349l34.766-34.766v-11.19zM67.26 67.261L26.654 26.653a91.251 91.251 0 00-5.349 5.842L56.07 67.261h11.19zM114.739 67.261l40.608-40.608a91.234 91.234 0 00-5.842-5.348L114.739 56.07v11.19z" fill="#D80027"/></svg>